<svg xmlns="http://www.w3.org/2000/svg" viewBox="0 0 760 470" fill="none" font-family="Inter, Segoe UI, Arial, sans-serif">
  <defs>
    <linearGradient id="g" x1="0" y1="0" x2="1" y2="1">
      <stop offset="0" stop-color="#1D4ED8"/>
      <stop offset="1" stop-color="#7C3AED"/>
    </linearGradient>
    <filter id="s" x="-10%" y="-10%" width="120%" height="130%">
      <feDropShadow dx="0" dy="12" stdDeviation="14" flood-color="#1E1B4B" flood-opacity="0.14"/>
    </filter>
    <filter id="s2" x="-20%" y="-20%" width="140%" height="160%">
      <feDropShadow dx="0" dy="6" stdDeviation="8" flood-color="#1E1B4B" flood-opacity="0.18"/>
    </filter>
  </defs>

  <!-- Window -->
  <rect x="20" y="20" width="720" height="430" rx="14" fill="#FFFFFF" stroke="#E2E8F0" filter="url(#s)"/>
  <path d="M20 34a14 14 0 0 1 14-14h692a14 14 0 0 1 14 14v22H20z" fill="#F8FAFC"/>
  <line x1="20" y1="56" x2="740" y2="56" stroke="#E2E8F0"/>
  <circle cx="42" cy="38" r="5" fill="#FDA4AF"/>
  <circle cx="60" cy="38" r="5" fill="#FCD34D"/>
  <circle cx="78" cy="38" r="5" fill="#86EFAC"/>
  <rect x="300" y="30" width="160" height="16" rx="8" fill="#EEF2F7"/>

  <!-- Banner -->
  <rect x="40" y="72" width="680" height="62" rx="10" fill="url(#g)"/>
  <circle cx="690" cy="72" r="70" fill="#FFFFFF" opacity="0.08"/>
  <rect x="60" y="90" width="150" height="12" rx="6" fill="#FFFFFF"/>
  <rect x="60" y="110" width="230" height="8" rx="4" fill="#FFFFFF" opacity="0.6"/>
  <rect x="598" y="92" width="100" height="24" rx="6" fill="#FFFFFF"/>
  <rect x="616" y="101" width="64" height="6" rx="3" fill="#1D4ED8"/>

  <!-- Stat cards -->
  <g>
    <rect x="40" y="150" width="216" height="70" rx="10" fill="#FFFFFF" stroke="#E2E8F0"/>
    <rect x="40" y="150" width="216" height="3" rx="1.5" fill="#1D4ED8"/>
    <rect x="56" y="170" width="70" height="7" rx="3.5" fill="#CBD5E1"/>
    <text x="56" y="205" font-size="20" font-weight="700" fill="#0F172A">128</text>
    <rect x="218" y="166" width="24" height="24" rx="6" fill="#EFF6FF"/>
    <rect x="225" y="173" width="10" height="10" rx="2" stroke="#1D4ED8" stroke-width="2"/>
  </g>
  <g>
    <rect x="272" y="150" width="216" height="70" rx="10" fill="#FFFFFF" stroke="#E2E8F0"/>
    <rect x="272" y="150" width="216" height="3" rx="1.5" fill="#E11D48"/>
    <rect x="288" y="170" width="80" height="7" rx="3.5" fill="#CBD5E1"/>
    <text x="288" y="205" font-size="20" font-weight="700" fill="#E11D48">6</text>
    <rect x="450" y="166" width="24" height="24" rx="6" fill="#FFF1F2"/>
    <path d="M462 172l6 11h-12z" stroke="#E11D48" stroke-width="2" stroke-linejoin="round"/>
  </g>
  <g>
    <rect x="504" y="150" width="216" height="70" rx="10" fill="#FFFFFF" stroke="#E2E8F0"/>
    <rect x="504" y="150" width="216" height="3" rx="1.5" fill="#0D9488"/>
    <rect x="520" y="170" width="74" height="7" rx="3.5" fill="#CBD5E1"/>
    <text x="520" y="205" font-size="20" font-weight="700" fill="#0F172A">82%</text>
    <rect x="682" y="166" width="24" height="24" rx="6" fill="#F0FDFA"/>
    <path d="M688 184l5-5 3 3 5-6" stroke="#0D9488" stroke-width="2" stroke-linecap="round" stroke-linejoin="round"/>
  </g>

  <!-- Bar chart card -->
  <rect x="40" y="236" width="420" height="196" rx="10" fill="#FFFFFF" stroke="#E2E8F0"/>
  <rect x="58" y="254" width="130" height="9" rx="4.5" fill="#334155"/>
  <g stroke="#EEF2F7">
    <line x1="58" y1="290" x2="442" y2="290"/>
    <line x1="58" y1="325" x2="442" y2="325"/>
    <line x1="58" y1="360" x2="442" y2="360"/>
    <line x1="58" y1="395" x2="442" y2="395"/>
  </g>
  <g>
    <rect x="78"  y="300" width="22" height="115" rx="4" fill="#1D4ED8"/>
    <rect x="104" y="330" width="22" height="85"  rx="4" fill="#FCD34D"/>
    <rect x="148" y="280" width="22" height="135" rx="4" fill="#7C3AED"/>
    <rect x="174" y="322" width="22" height="93"  rx="4" fill="#FCD34D"/>
    <rect x="218" y="340" width="22" height="75"  rx="4" fill="#0D9488"/>
    <rect x="244" y="318" width="22" height="97"  rx="4" fill="#FCD34D"/>
    <rect x="288" y="292" width="22" height="123" rx="4" fill="#D97706"/>
    <rect x="314" y="326" width="22" height="89"  rx="4" fill="#FCD34D"/>
    <rect x="358" y="310" width="22" height="105" rx="4" fill="#E11D48"/>
    <rect x="384" y="334" width="22" height="81"  rx="4" fill="#FCD34D"/>
  </g>
  <line x1="58" y1="415" x2="442" y2="415" stroke="#E2E8F0"/>

  <!-- Donut card -->
  <rect x="476" y="236" width="244" height="196" rx="10" fill="#FFFFFF" stroke="#E2E8F0"/>
  <rect x="494" y="254" width="110" height="9" rx="4.5" fill="#334155"/>
  <g transform="translate(560 345)" stroke-width="18" fill="none">
    <circle r="44" stroke="#E2E8F0"/>
    <circle r="44" stroke="#059669" stroke-dasharray="104 276.5" transform="rotate(-90)"/>
    <circle r="44" stroke="#1D4ED8" stroke-dasharray="80 276.5" stroke-dashoffset="-107" transform="rotate(-90)"/>
    <circle r="44" stroke="#7C3AED" stroke-dasharray="52 276.5" stroke-dashoffset="-190" transform="rotate(-90)"/>
    <circle r="44" stroke="#D97706" stroke-dasharray="30 276.5" stroke-dashoffset="-245" transform="rotate(-90)"/>
  </g>
  <text x="560" y="351" font-size="15" font-weight="700" fill="#0F172A" text-anchor="middle">A+</text>
  <g font-size="10" fill="#64748B">
    <circle cx="630" cy="310" r="4" fill="#059669"/><rect x="640" y="306" width="50" height="7" rx="3.5" fill="#E2E8F0"/>
    <circle cx="630" cy="332" r="4" fill="#1D4ED8"/><rect x="640" y="328" width="42" height="7" rx="3.5" fill="#E2E8F0"/>
    <circle cx="630" cy="354" r="4" fill="#7C3AED"/><rect x="640" y="350" width="46" height="7" rx="3.5" fill="#E2E8F0"/>
    <circle cx="630" cy="376" r="4" fill="#D97706"/><rect x="640" y="372" width="36" height="7" rx="3.5" fill="#E2E8F0"/>
  </g>

  <!-- Floating alert card -->
  <g filter="url(#s2)">
    <rect x="528" y="398" width="212" height="58" rx="10" fill="#FFFFFF" stroke="#E2E8F0"/>
    <rect x="542" y="412" width="30" height="30" rx="8" fill="#FFF1F2"/>
    <path d="M557 419l8 15h-16z" stroke="#E11D48" stroke-width="2" stroke-linejoin="round"/>
    <text x="582" y="424" font-size="11" font-weight="600" fill="#0F172A">At-risk alert</text>
    <text x="582" y="440" font-size="10" fill="#64748B">2 students need support</text>
  </g>

  <!-- Floating grade card -->
  <g filter="url(#s2)">
    <rect x="0" y="330" width="150" height="58" rx="10" fill="#FFFFFF" stroke="#E2E8F0"/>
    <circle cx="28" cy="359" r="15" fill="url(#g)"/>
    <text x="28" y="363" font-size="11" font-weight="700" fill="#FFFFFF" text-anchor="middle">KP</text>
    <text x="52" y="354" font-size="11" font-weight="600" fill="#0F172A">Maths · 92</text>
    <rect x="52" y="362" width="42" height="14" rx="7" fill="#ECFDF5"/>
    <text x="73" y="372" font-size="9" font-weight="600" fill="#047857" text-anchor="middle">Grade A</text>
  </g>
</svg>
